<?xml version="1.0" encoding="UTF-8" standalone="no"?>
<!-- Created with Inkscape (http://www.inkscape.org/) -->

<svg
   width="210mm"
   height="297mm"
   viewBox="0 0 210 297"
   version="1.1"
   id="svg1"
   inkscape:version="1.4.2 (ebf0e940d0, 2025-05-08)"
   sodipodi:docname="number_blocks_3.svg"
   xmlns:inkscape="http://www.inkscape.org/namespaces/inkscape"
   xmlns:sodipodi="http://sodipodi.sourceforge.net/DTD/sodipodi-0.dtd"
   xmlns="http://www.w3.org/2000/svg"
   xmlns:svg="http://www.w3.org/2000/svg">
  <sodipodi:namedview
     id="namedview1"
     pagecolor="#ffffff"
     bordercolor="#000000"
     borderopacity="0.25"
     inkscape:showpageshadow="2"
     inkscape:pageopacity="0.0"
     inkscape:pagecheckerboard="0"
     inkscape:deskcolor="#d1d1d1"
     inkscape:document-units="mm"
     inkscape:zoom="0.24926847"
     inkscape:cx="246.72194"
     inkscape:cy="-82.240646"
     inkscape:window-width="1920"
     inkscape:window-height="1016"
     inkscape:window-x="0"
     inkscape:window-y="27"
     inkscape:window-maximized="1"
     inkscape:current-layer="g497">
    <inkscape:page
       x="0"
       y="0"
       width="210"
       height="297"
       id="page452"
       margin="0"
       bleed="0" />
  </sodipodi:namedview>
  <defs
     id="defs1" />
  <g
     inkscape:label="Layer 1"
     inkscape:groupmode="layer"
     id="layer1"
     transform="translate(-440.00002)">
    <g
       id="g454"
       transform="translate(28.610209,-1.2304145)">
      <rect
         style="fill:none;stroke:#999999;stroke-width:0.499999;stroke-dasharray:none"
         id="rect452"
         width="30"
         height="40"
         x="450.57269"
         y="7.1602473" />
      <path
         style="font-size:28.2222px;line-height:34.1351px;font-family:Sans;-inkscape-font-specification:'Sans, Normal';text-align:center;letter-spacing:0px;word-spacing:0px;text-anchor:middle;fill:#999999;stroke-width:0.5"
         d="m 460.00796,35.44107 h 4.54752 V 19.745227 l -4.94715,0.992187 v -2.535588 l 4.91959,-0.992187 h 2.78364 V 35.44107 h 4.54752 v 2.342663 h -11.85112 z"
         id="text452"
         aria-label="1" />
      <rect
         style="fill:none;stroke:#ff0000;stroke-width:0.499999;stroke-dasharray:none"
         id="rect453"
         width="31"
         height="41"
         x="450.07269"
         y="6.6602468" />
    </g>
    <g
       id="g455"
       transform="translate(62.371135,-1.2304145)">
      <rect
         style="fill:none;stroke:#999999;stroke-width:0.499999;stroke-dasharray:none"
         id="rect454"
         width="30"
         height="40"
         x="450.57269"
         y="7.1602473" />
      <path
         style="font-size:28.2222px;line-height:34.1351px;font-family:Sans;-inkscape-font-specification:'Sans, Normal';text-align:center;letter-spacing:0px;word-spacing:0px;text-anchor:middle;fill:#999999;stroke-width:0.5"
         d="m 462.32996,35.44107 h 9.71516 v 2.342663 H 458.98133 V 35.44107 q 1.58474,-1.639864 4.31325,-4.395938 2.7423,-2.769855 3.44509,-3.569116 1.3367,-1.502061 1.86035,-2.535589 0.53744,-1.047308 0.53744,-2.053275 0,-1.639864 -1.15755,-2.673392 -1.14377,-1.033528 -2.99034,-1.033528 -1.30914,0 -2.76986,0.454752 -1.44694,0.454753 -3.10058,1.378038 v -2.811196 q 1.6812,-0.675238 3.14192,-1.019748 1.46072,-0.344509 2.6734,-0.344509 3.19704,0 5.09873,1.598523 1.90169,1.598523 1.90169,4.271915 0,1.267794 -0.48231,2.411565 -0.46853,1.129991 -1.72255,2.673392 -0.3445,0.399631 -2.19107,2.315103 -1.84657,1.901691 -5.20898,5.333003 z"
         id="text454"
         aria-label="2" />
      <rect
         style="fill:none;stroke:#ff0000;stroke-width:0.499999;stroke-dasharray:none"
         id="rect455"
         width="31"
         height="41"
         x="450.07269"
         y="6.6602468" />
    </g>
    <g
       id="g457"
       transform="translate(-5.1507161,-1.2304145)">
      <rect
         style="fill:none;stroke:#999999;stroke-width:0.499999;stroke-dasharray:none"
         id="rect456"
         width="30"
         height="40"
         x="450.57269"
         y="7.1602473" />
      <path
         style="font-size:28.2222px;line-height:34.1351px;font-family:Sans;-inkscape-font-specification:'Sans, Normal';text-align:center;letter-spacing:0px;word-spacing:0px;text-anchor:middle;fill:#999999;stroke-width:0.5"
         d="m 465.47877,19.042428 q -2.14974,0 -3.23839,2.122178 -1.07487,2.108396 -1.07487,6.352751 0,4.230574 1.07487,6.352751 1.08865,2.108397 3.23839,2.108397 2.16351,0 3.23838,-2.108397 1.08865,-2.122177 1.08865,-6.352751 0,-4.244355 -1.08865,-6.352751 -1.07487,-2.122178 -3.23838,-2.122178 z m 0,-2.204859 q 3.45887,0 5.27788,2.742294 1.83279,2.728513 1.83279,7.937494 0,5.1952 -1.83279,7.937494 -1.81901,2.728513 -5.27788,2.728513 -3.45888,0 -5.29167,-2.728513 -1.81901,-2.742294 -1.81901,-7.937494 0,-5.208981 1.81901,-7.937494 1.83279,-2.742294 5.29167,-2.742294 z"
         id="text456"
         aria-label="0" />
      <rect
         style="fill:none;stroke:#ff0000;stroke-width:0.499999;stroke-dasharray:none"
         id="rect457"
         width="31"
         height="41"
         x="450.07269"
         y="6.6602468" />
    </g>
    <g
       id="g459"
       transform="translate(129.89297,-1.2304145)">
      <rect
         style="fill:none;stroke:#999999;stroke-width:0.499999;stroke-dasharray:none"
         id="rect458"
         width="30"
         height="40"
         x="450.57269"
         y="7.1602473" />
      <path
         style="font-size:28.2222px;line-height:34.1351px;font-family:Sans;-inkscape-font-specification:'Sans, Normal';text-align:center;letter-spacing:0px;word-spacing:0px;text-anchor:middle;fill:#999999;stroke-width:0.5"
         d="m 467.17375,19.634984 -7.02799,10.982956 h 7.02799 z m -0.73036,-2.425345 h 3.50022 V 30.61794 h 2.93522 v 2.315103 h -2.93522 v 4.85069 h -2.76986 v -4.85069 h -9.28797 V 30.24587 Z"
         id="text458"
         aria-label="4" />
      <rect
         style="fill:none;stroke:#ff0000;stroke-width:0.499999;stroke-dasharray:none"
         id="rect459"
         width="31"
         height="41"
         x="450.07269"
         y="6.6602468" />
    </g>
    <g
       id="g461"
       transform="translate(163.6539,-1.2304145)">
      <rect
         style="fill:none;stroke:#999999;stroke-width:0.499999;stroke-dasharray:none"
         id="rect460"
         width="30"
         height="40"
         x="450.57269"
         y="7.1602473" />
      <path
         style="font-size:28.2222px;line-height:34.1351px;font-family:Sans;-inkscape-font-specification:'Sans, Normal';text-align:center;letter-spacing:0px;word-spacing:0px;text-anchor:middle;fill:#999999;stroke-width:0.5"
         d="m 459.95973,17.209639 h 10.92784 v 2.342663 h -8.37847 v 5.043616 q 0.60634,-0.206706 1.21267,-0.303168 0.60634,-0.110243 1.21268,-0.110243 3.44509,0 5.45702,1.887911 2.01194,1.887911 2.01194,5.112518 0,3.321069 -2.06706,5.167639 -2.06705,1.832789 -5.8291,1.832789 -1.29535,0 -2.64583,-0.220486 -1.33669,-0.220486 -2.76985,-0.661458 v -2.797415 q 1.24023,0.675238 2.56315,1.005967 1.32291,0.330729 2.79741,0.330729 2.38401,0 3.77582,-1.254014 1.39182,-1.254014 1.39182,-3.403751 0,-2.149738 -1.39182,-3.403752 -1.39181,-1.254014 -3.77582,-1.254014 -1.11621,0 -2.23242,0.248047 -1.10243,0.248046 -2.25998,0.771701 z"
         id="text460"
         aria-label="5" />
      <rect
         style="fill:none;stroke:#ff0000;stroke-width:0.499999;stroke-dasharray:none"
         id="rect461"
         width="31"
         height="41"
         x="450.07269"
         y="6.6602468" />
      <text
         xml:space="preserve"
         style="font-style:normal;font-variant:normal;font-weight:normal;font-stretch:normal;font-size:28.2223px;line-height:34.1352px;font-family:Sans;-inkscape-font-specification:'Sans, Normal';font-variant-ligatures:normal;font-variant-caps:normal;font-variant-numeric:normal;font-variant-east-asian:normal;text-align:center;letter-spacing:0px;word-spacing:0px;writing-mode:lr-tb;direction:ltr;text-anchor:middle;fill:#ffffff;fill-opacity:1;stroke:none;stroke-width:0.499999;stroke-dasharray:none"
         x="506.14786"
         y="34.763493"
         id="text541"><tspan
           sodipodi:role="line"
           id="tspan541"
           style="stroke-width:0.5"
           x="506.14786"
           y="34.763493" /></text>
    </g>
    <g
       id="g463"
       transform="translate(96.132062,-1.2304145)">
      <rect
         style="fill:none;stroke:#999999;stroke-width:0.499999;stroke-dasharray:none"
         id="rect462"
         width="30"
         height="40"
         x="450.57269"
         y="7.1602473" />
      <path
         style="font-size:28.2222px;line-height:34.1351px;font-family:Sans;-inkscape-font-specification:'Sans, Normal';text-align:center;letter-spacing:0px;word-spacing:0px;text-anchor:middle;fill:#999999;stroke-width:0.5"
         d="m 467.95923,26.690534 q 1.99816,0.427192 3.11437,1.777668 1.12999,1.350477 1.12999,3.33485 0,3.045462 -2.09462,4.712887 -2.09462,1.667425 -5.95312,1.667425 -1.29535,0 -2.67339,-0.261827 -1.36426,-0.248047 -2.82498,-0.75792 v -2.687173 q 1.15755,0.675238 2.53559,1.019748 1.37804,0.344509 2.8801,0.344509 2.61827,0 3.98253,-1.033528 1.37803,-1.033528 1.37803,-3.004121 0,-1.819009 -1.28157,-2.838756 -1.2678,-1.033528 -3.54156,-1.033528 h -2.39778 v -2.287542 h 2.50803 q 2.05327,0 3.14192,-0.813042 1.08865,-0.826822 1.08865,-2.370224 0,-1.584742 -1.12999,-2.425345 -1.11621,-0.854383 -3.21083,-0.854383 -1.14377,0 -2.4529,0.248047 -1.30914,0.248046 -2.8801,0.771701 v -2.480467 q 1.58474,-0.440972 2.96278,-0.661458 1.39182,-0.220486 2.61827,-0.220486 3.16949,0 5.01605,1.446939 1.84657,1.433159 1.84657,3.886065 0,1.708766 -0.9784,2.893878 -0.97841,1.171331 -2.78364,1.626083 z"
         id="text462"
         aria-label="3" />
      <rect
         style="fill:none;stroke:#ff0000;stroke-width:0.499999;stroke-dasharray:none"
         id="rect463"
         width="31"
         height="41"
         x="450.07269"
         y="6.6602468" />
    </g>
    <g
       id="g465"
       transform="translate(28.489807,47.11765)">
      <rect
         style="fill:none;stroke:#999999;stroke-width:0.499999;stroke-dasharray:none"
         id="rect464"
         width="30"
         height="40"
         x="450.57269"
         y="7.1602473" />
      <path
         style="font-size:28.2222px;line-height:34.1351px;font-family:Sans;-inkscape-font-specification:'Sans, Normal';text-align:center;letter-spacing:0px;word-spacing:0px;text-anchor:middle;fill:#999999;stroke-width:0.5"
         d="M 458.82285,17.209639 H 472.052 v 1.185112 l -7.46896,19.388982 h -2.90766 l 7.02799,-18.231431 h -9.88052 z"
         id="text464"
         aria-label="7" />
      <rect
         style="fill:none;stroke:#ff0000;stroke-width:0.499999;stroke-dasharray:none"
         id="rect465"
         width="31"
         height="41"
         x="450.07269"
         y="6.6602468" />
    </g>
    <g
       id="g467"
       transform="translate(62.256465,47.11765)">
      <rect
         style="fill:none;stroke:#999999;stroke-width:0.499999;stroke-dasharray:none"
         id="rect466"
         width="30"
         height="40"
         x="450.57269"
         y="7.1602473" />
      <path
         style="font-size:28.2222px;line-height:34.1351px;font-family:Sans;-inkscape-font-specification:'Sans, Normal';text-align:center;letter-spacing:0px;word-spacing:0px;text-anchor:middle;fill:#999999;stroke-width:0.5"
         d="m 465.88529,28.01345 q -1.98437,0 -3.12814,1.061089 -1.12999,1.061088 -1.12999,2.921438 0,1.860351 1.12999,2.921439 1.14377,1.061089 3.12814,1.061089 1.98437,0 3.12815,-1.061089 1.14377,-1.074869 1.14377,-2.921439 0,-1.86035 -1.14377,-2.921438 -1.12999,-1.061089 -3.12815,-1.061089 z m -2.78363,-1.185112 q -1.79145,-0.440972 -2.79742,-1.667425 -0.99219,-1.226453 -0.99219,-2.99034 0,-2.466687 1.75011,-3.899845 1.76389,-1.433159 4.82313,-1.433159 3.07302,0 4.82313,1.433159 1.75011,1.433158 1.75011,3.899845 0,1.763887 -1.00597,2.99034 -0.99219,1.226453 -2.76985,1.667425 2.01193,0.468533 3.12814,1.83279 1.12999,1.364256 1.12999,3.334849 0,2.990341 -1.83279,4.588864 -1.81901,1.598523 -5.22276,1.598523 -3.40375,0 -5.23654,-1.598523 -1.81901,-1.598523 -1.81901,-4.588864 0,-1.970593 1.12999,-3.334849 1.12999,-1.364257 3.14193,-1.83279 z M 462.08191,22.4324 q 0,1.598523 0.99219,2.494247 1.00596,0.895724 2.81119,0.895724 1.79145,0 2.79742,-0.895724 1.01974,-0.895724 1.01974,-2.494247 0,-1.598523 -1.01974,-2.494247 -1.00597,-0.895725 -2.79742,-0.895725 -1.80523,0 -2.81119,0.895725 -0.99219,0.895724 -0.99219,2.494247 z"
         id="text466"
         aria-label="8" />
      <rect
         style="fill:none;stroke:#ff0000;stroke-width:0.499999;stroke-dasharray:none"
         id="rect467"
         width="31"
         height="41"
         x="450.07269"
         y="6.6602468" />
    </g>
    <g
       id="g469"
       transform="translate(-5.2768509,47.11765)">
      <rect
         style="fill:none;stroke:#999999;stroke-width:0.499999;stroke-dasharray:none"
         id="rect468"
         width="30"
         height="40"
         x="450.57269"
         y="7.1602473" />
      <path
         style="font-size:28.2222px;line-height:34.1351px;font-family:Sans;-inkscape-font-specification:'Sans, Normal';text-align:center;letter-spacing:0px;word-spacing:0px;text-anchor:middle;fill:#999999;stroke-width:0.5"
         d="m 465.82328,26.387366 q -1.87413,0 -2.97656,1.281575 -1.08865,1.281574 -1.08865,3.513995 0,2.218639 1.08865,3.513994 1.10243,1.281575 2.97656,1.281575 1.87413,0 2.96278,-1.281575 1.10243,-1.295355 1.10243,-3.513994 0,-2.232421 -1.10243,-3.513995 -1.08865,-1.281575 -2.96278,-1.281575 z m 5.52592,-8.722975 v 2.535589 q -1.0473,-0.496094 -2.12217,-0.757921 -1.06109,-0.261827 -2.1084,-0.261827 -2.75607,0 -4.21679,1.86035 -1.44694,1.86035 -1.65365,5.622392 0.81304,-1.198893 2.0395,-1.83279 1.22645,-0.647677 2.70095,-0.647677 3.10058,0 4.89203,1.887911 1.80523,1.87413 1.80523,5.112518 0,3.169485 -1.87413,5.084957 -1.87413,1.915471 -4.98849,1.915471 -3.56912,0 -5.45703,-2.728513 -1.88791,-2.742294 -1.88791,-7.937494 0,-4.878252 2.3151,-7.77213 2.3151,-2.907658 6.21495,-2.907658 1.04731,0 2.10839,0.206706 1.07487,0.206705 2.23242,0.620116 z"
         id="text468"
         aria-label="6" />
      <rect
         style="fill:none;stroke:#ff0000;stroke-width:0.499999;stroke-dasharray:none"
         id="rect469"
         width="31"
         height="41"
         x="450.07269"
         y="6.6602468" />
    </g>
    <g
       id="g471"
       transform="translate(129.78978,47.11765)">
      <rect
         style="fill:none;stroke:#999999;stroke-width:0.499999;stroke-dasharray:none"
         id="rect470"
         width="30"
         height="40"
         x="450.57269"
         y="7.1602473" />
      <path
         style="font-size:28.2222px;line-height:34.1351px;font-family:Sans;-inkscape-font-specification:'Sans, Normal';text-align:center;letter-spacing:0px;word-spacing:0px;text-anchor:middle;fill:#999999;stroke-width:0.5"
         d="m 465.47877,19.042428 q -2.14974,0 -3.23839,2.122178 -1.07487,2.108396 -1.07487,6.352751 0,4.230574 1.07487,6.352751 1.08865,2.108397 3.23839,2.108397 2.16351,0 3.23838,-2.108397 1.08865,-2.122177 1.08865,-6.352751 0,-4.244355 -1.08865,-6.352751 -1.07487,-2.122178 -3.23838,-2.122178 z m 0,-2.204859 q 3.45887,0 5.27788,2.742294 1.83279,2.728513 1.83279,7.937494 0,5.1952 -1.83279,7.937494 -1.81901,2.728513 -5.27788,2.728513 -3.45888,0 -5.29167,-2.728513 -1.81901,-2.742294 -1.81901,-7.937494 0,-5.208981 1.81901,-7.937494 1.83279,-2.742294 5.29167,-2.742294 z"
         id="text470"
         aria-label="0" />
      <rect
         style="fill:none;stroke:#ff0000;stroke-width:0.499999;stroke-dasharray:none"
         id="rect471"
         width="31"
         height="41"
         x="450.07269"
         y="6.6602468" />
    </g>
    <g
       id="g473"
       transform="translate(163.55644,47.11765)">
      <rect
         style="fill:none;stroke:#999999;stroke-width:0.499999;stroke-dasharray:none"
         id="rect472"
         width="30"
         height="40"
         x="450.57269"
         y="7.1602473" />
      <path
         style="font-size:28.2222px;line-height:34.1351px;font-family:Sans;-inkscape-font-specification:'Sans, Normal';text-align:center;letter-spacing:0px;word-spacing:0px;text-anchor:middle;fill:#999999;stroke-width:0.5"
         d="m 460.41448,35.44107 h 4.54753 V 19.745227 l -4.94716,0.992187 v -2.535588 l 4.9196,-0.992187 h 2.78363 V 35.44107 h 4.54752 v 2.342663 h -11.85112 z"
         id="text472"
         aria-label="1" />
      <rect
         style="fill:none;stroke:#ff0000;stroke-width:0.499999;stroke-dasharray:none"
         id="rect473"
         width="31"
         height="41"
         x="450.07269"
         y="6.6602468" />
    </g>
    <g
       id="g475"
       transform="translate(96.023124,47.11765)">
      <rect
         style="fill:none;stroke:#999999;stroke-width:0.499999;stroke-dasharray:none"
         id="rect474"
         width="30"
         height="40"
         x="450.57269"
         y="7.1602473" />
      <path
         style="font-size:28.2222px;line-height:34.1351px;font-family:Sans;-inkscape-font-specification:'Sans, Normal';text-align:center;letter-spacing:0px;word-spacing:0px;text-anchor:middle;fill:#999999;stroke-width:0.5"
         d="m 459.60833,37.356542 v -2.535588 q 1.04731,0.496093 2.12218,0.75792 1.07486,0.261827 2.10839,0.261827 2.75608,0 4.20302,-1.84657 1.46071,-1.86035 1.66742,-5.636172 -0.79926,1.185112 -2.02571,1.819009 -1.22646,0.633897 -2.71474,0.633897 -3.0868,0 -4.89203,-1.86035 -1.79145,-1.87413 -1.79145,-5.112517 0,-3.169486 1.87413,-5.084957 1.87413,-1.915472 4.9885,-1.915472 3.56911,0 5.44324,2.742294 1.88792,2.728513 1.88792,7.937494 0,4.864471 -2.31511,7.772129 -2.30132,2.893878 -6.20116,2.893878 -1.04731,0 -2.12218,-0.206705 -1.07487,-0.206706 -2.23242,-0.620117 z m 5.53971,-8.722975 q 1.87413,0 2.96278,-1.281575 1.10243,-1.281574 1.10243,-3.513994 0,-2.21864 -1.10243,-3.500215 -1.08865,-1.295355 -2.96278,-1.295355 -1.87413,0 -2.97656,1.295355 -1.08865,1.281575 -1.08865,3.500215 0,2.23242 1.08865,3.513994 1.10243,1.281575 2.97656,1.281575 z"
         id="text474"
         aria-label="9" />
      <rect
         style="fill:none;stroke:#ff0000;stroke-width:0.499999;stroke-dasharray:none"
         id="rect475"
         width="31"
         height="41"
         x="450.07269"
         y="6.6602468" />
    </g>
    <g
       id="g477"
       transform="translate(28.086176,95.023709)">
      <rect
         style="fill:none;stroke:#999999;stroke-width:0.499999;stroke-dasharray:none"
         id="rect476"
         width="30"
         height="40"
         x="450.57269"
         y="7.1602473" />
      <path
         style="font-size:28.2222px;line-height:34.1351px;font-family:Sans;-inkscape-font-specification:'Sans, Normal';text-align:center;letter-spacing:0px;word-spacing:0px;text-anchor:middle;fill:#999999;stroke-width:0.5"
         d="m 460.00796,35.44107 h 4.54752 V 19.745227 l -4.94715,0.992187 v -2.535588 l 4.91959,-0.992187 h 2.78364 V 35.44107 h 4.54752 v 2.342663 h -11.85112 z"
         id="text476"
         aria-label="1" />
      <rect
         style="fill:none;stroke:#ff0000;stroke-width:0.499999;stroke-dasharray:none"
         id="rect477"
         width="31"
         height="41"
         x="450.07269"
         y="6.6602468" />
    </g>
    <g
       id="g479"
       transform="translate(61.953742,95.023709)">
      <rect
         style="fill:none;stroke:#999999;stroke-width:0.499999;stroke-dasharray:none"
         id="rect478"
         width="30"
         height="40"
         x="450.57269"
         y="7.1602473" />
      <path
         style="font-size:28.2222px;line-height:34.1351px;font-family:Sans;-inkscape-font-specification:'Sans, Normal';text-align:center;letter-spacing:0px;word-spacing:0px;text-anchor:middle;fill:#999999;stroke-width:0.5"
         d="m 462.32996,35.44107 h 9.71516 v 2.342663 H 458.98133 V 35.44107 q 1.58474,-1.639864 4.31325,-4.395938 2.7423,-2.769855 3.44509,-3.569116 1.3367,-1.502061 1.86035,-2.535589 0.53744,-1.047308 0.53744,-2.053275 0,-1.639864 -1.15755,-2.673392 -1.14377,-1.033528 -2.99034,-1.033528 -1.30914,0 -2.76986,0.454752 -1.44694,0.454753 -3.10058,1.378038 v -2.811196 q 1.6812,-0.675238 3.14192,-1.019748 1.46072,-0.344509 2.6734,-0.344509 3.19704,0 5.09873,1.598523 1.90169,1.598523 1.90169,4.271915 0,1.267794 -0.48231,2.411565 -0.46853,1.129991 -1.72255,2.673392 -0.3445,0.399631 -2.19107,2.315103 -1.84657,1.901691 -5.20898,5.333003 z"
         id="text478"
         aria-label="2" />
      <rect
         style="fill:none;stroke:#ff0000;stroke-width:0.499999;stroke-dasharray:none"
         id="rect479"
         width="31"
         height="41"
         x="450.07269"
         y="6.6602468" />
    </g>
    <g
       id="g481"
       transform="translate(-5.7813901,95.02371)">
      <rect
         style="fill:none;stroke:#999999;stroke-width:0.499999;stroke-dasharray:none"
         id="rect480"
         width="30"
         height="40"
         x="450.57269"
         y="7.1602473" />
      <path
         style="font-size:28.2222px;line-height:34.1351px;font-family:Sans;-inkscape-font-specification:'Sans, Normal';text-align:center;letter-spacing:0px;word-spacing:0px;text-anchor:middle;fill:#999999;stroke-width:0.5"
         d="m 465.47877,19.042428 q -2.14974,0 -3.23839,2.122178 -1.07487,2.108396 -1.07487,6.352751 0,4.230574 1.07487,6.352751 1.08865,2.108397 3.23839,2.108397 2.16351,0 3.23838,-2.108397 1.08865,-2.122177 1.08865,-6.352751 0,-4.244355 -1.08865,-6.352751 -1.07487,-2.122178 -3.23838,-2.122178 z m 0,-2.204859 q 3.45887,0 5.27788,2.742294 1.83279,2.728513 1.83279,7.937494 0,5.1952 -1.83279,7.937494 -1.81901,2.728513 -5.27788,2.728513 -3.45888,0 -5.29167,-2.728513 -1.81901,-2.742294 -1.81901,-7.937494 0,-5.208981 1.81901,-7.937494 1.83279,-2.742294 5.29167,-2.742294 z"
         id="text480"
         aria-label="0" />
      <rect
         style="fill:none;stroke:#ff0000;stroke-width:0.499999;stroke-dasharray:none"
         id="rect481"
         width="31"
         height="41"
         x="450.07269"
         y="6.6602468" />
    </g>
    <g
       id="g483"
       transform="translate(129.68887,95.02371)">
      <rect
         style="fill:none;stroke:#999999;stroke-width:0.499999;stroke-dasharray:none"
         id="rect482"
         width="30"
         height="40"
         x="450.57269"
         y="7.1602473" />
      <path
         style="font-size:28.2222px;line-height:34.1351px;font-family:Sans;-inkscape-font-specification:'Sans, Normal';text-align:center;letter-spacing:0px;word-spacing:0px;text-anchor:middle;fill:#999999;stroke-width:0.5"
         d="m 467.17375,19.634984 -7.02799,10.982956 h 7.02799 z m -0.73036,-2.425345 h 3.50022 V 30.61794 h 2.93522 v 2.315103 h -2.93522 v 4.85069 h -2.76986 v -4.85069 h -9.28797 V 30.24587 Z"
         id="text482"
         aria-label="4" />
      <rect
         style="fill:none;stroke:#ff0000;stroke-width:0.499999;stroke-dasharray:none"
         id="rect483"
         width="31"
         height="41"
         x="450.07269"
         y="6.6602468" />
    </g>
    <g
       id="g485"
       transform="translate(163.55644,95.02371)">
      <rect
         style="fill:none;stroke:#999999;stroke-width:0.499999;stroke-dasharray:none"
         id="rect484"
         width="30"
         height="40"
         x="450.57269"
         y="7.1602473" />
      <path
         style="font-size:28.2222px;line-height:34.1351px;font-family:Sans;-inkscape-font-specification:'Sans, Normal';text-align:center;letter-spacing:0px;word-spacing:0px;text-anchor:middle;fill:#999999;stroke-width:0.5"
         d="m 459.95973,17.209639 h 10.92784 v 2.342663 h -8.37847 v 5.043616 q 0.60634,-0.206706 1.21267,-0.303168 0.60634,-0.110243 1.21268,-0.110243 3.44509,0 5.45702,1.887911 2.01194,1.887911 2.01194,5.112518 0,3.321069 -2.06706,5.167639 -2.06705,1.832789 -5.8291,1.832789 -1.29535,0 -2.64583,-0.220486 -1.33669,-0.220486 -2.76985,-0.661458 v -2.797415 q 1.24023,0.675238 2.56315,1.005967 1.32291,0.330729 2.79741,0.330729 2.38401,0 3.77582,-1.254014 1.39182,-1.254014 1.39182,-3.403751 0,-2.149738 -1.39182,-3.403752 -1.39181,-1.254014 -3.77582,-1.254014 -1.11621,0 -2.23242,0.248047 -1.10243,0.248046 -2.25998,0.771701 z"
         id="text484"
         aria-label="5" />
      <rect
         style="fill:none;stroke:#ff0000;stroke-width:0.499999;stroke-dasharray:none"
         id="rect485"
         width="31"
         height="41"
         x="450.07269"
         y="6.6602468" />
    </g>
    <g
       id="g487"
       transform="translate(95.821308,95.023709)">
      <rect
         style="fill:none;stroke:#999999;stroke-width:0.499999;stroke-dasharray:none"
         id="rect486"
         width="30"
         height="40"
         x="450.57269"
         y="7.1602473" />
      <path
         style="font-size:28.2222px;line-height:34.1351px;font-family:Sans;-inkscape-font-specification:'Sans, Normal';text-align:center;letter-spacing:0px;word-spacing:0px;text-anchor:middle;fill:#999999;stroke-width:0.5"
         d="m 467.95923,26.690534 q 1.99816,0.427192 3.11437,1.777668 1.12999,1.350477 1.12999,3.33485 0,3.045462 -2.09462,4.712887 -2.09462,1.667425 -5.95312,1.667425 -1.29535,0 -2.67339,-0.261827 -1.36426,-0.248047 -2.82498,-0.75792 v -2.687173 q 1.15755,0.675238 2.53559,1.019748 1.37804,0.344509 2.8801,0.344509 2.61827,0 3.98253,-1.033528 1.37803,-1.033528 1.37803,-3.004121 0,-1.819009 -1.28157,-2.838756 -1.2678,-1.033528 -3.54156,-1.033528 h -2.39778 v -2.287542 h 2.50803 q 2.05327,0 3.14192,-0.813042 1.08865,-0.826822 1.08865,-2.370224 0,-1.584742 -1.12999,-2.425345 -1.11621,-0.854383 -3.21083,-0.854383 -1.14377,0 -2.4529,0.248047 -1.30914,0.248046 -2.8801,0.771701 v -2.480467 q 1.58474,-0.440972 2.96278,-0.661458 1.39182,-0.220486 2.61827,-0.220486 3.16949,0 5.01605,1.446939 1.84657,1.433159 1.84657,3.886065 0,1.708766 -0.9784,2.893878 -0.97841,1.171331 -2.78364,1.626083 z"
         id="text486"
         aria-label="3" />
      <rect
         style="fill:none;stroke:#ff0000;stroke-width:0.499999;stroke-dasharray:none"
         id="rect487"
         width="31"
         height="41"
         x="450.07269"
         y="6.6602468" />
    </g>
    <g
       id="g489"
       transform="translate(28.259896,143.40559)">
      <rect
         style="fill:none;stroke:#999999;stroke-width:0.499999;stroke-dasharray:none"
         id="rect488"
         width="30"
         height="40"
         x="450.57269"
         y="7.1602473" />
      <path
         style="font-size:28.2222px;line-height:34.1351px;font-family:Sans;-inkscape-font-specification:'Sans, Normal';text-align:center;letter-spacing:0px;word-spacing:0px;text-anchor:middle;fill:#999999;stroke-width:0.5"
         d="M 458.82285,17.209639 H 472.052 v 1.185112 l -7.46896,19.388982 h -2.90766 l 7.02799,-18.231431 h -9.88052 z"
         id="text488"
         aria-label="7" />
      <rect
         style="fill:none;stroke:#ff0000;stroke-width:0.499999;stroke-dasharray:none"
         id="rect489"
         width="31"
         height="41"
         x="450.07269"
         y="6.6602468" />
    </g>
    <g
       id="g491"
       transform="translate(62.175047,143.40559)">
      <rect
         style="fill:none;stroke:#999999;stroke-width:0.499999;stroke-dasharray:none"
         id="rect490"
         width="30"
         height="40"
         x="450.57269"
         y="7.1602473" />
      <path
         style="font-size:28.2222px;line-height:34.1351px;font-family:Sans;-inkscape-font-specification:'Sans, Normal';text-align:center;letter-spacing:0px;word-spacing:0px;text-anchor:middle;fill:#999999;stroke-width:0.5"
         d="m 465.88529,28.01345 q -1.98437,0 -3.12814,1.061089 -1.12999,1.061088 -1.12999,2.921438 0,1.860351 1.12999,2.921439 1.14377,1.061089 3.12814,1.061089 1.98437,0 3.12815,-1.061089 1.14377,-1.074869 1.14377,-2.921439 0,-1.86035 -1.14377,-2.921438 -1.12999,-1.061089 -3.12815,-1.061089 z m -2.78363,-1.185112 q -1.79145,-0.440972 -2.79742,-1.667425 -0.99219,-1.226453 -0.99219,-2.99034 0,-2.466687 1.75011,-3.899845 1.76389,-1.433159 4.82313,-1.433159 3.07302,0 4.82313,1.433159 1.75011,1.433158 1.75011,3.899845 0,1.763887 -1.00597,2.99034 -0.99219,1.226453 -2.76985,1.667425 2.01193,0.468533 3.12814,1.83279 1.12999,1.364256 1.12999,3.334849 0,2.990341 -1.83279,4.588864 -1.81901,1.598523 -5.22276,1.598523 -3.40375,0 -5.23654,-1.598523 -1.81901,-1.598523 -1.81901,-4.588864 0,-1.970593 1.12999,-3.334849 1.12999,-1.364257 3.14193,-1.83279 z M 462.08191,22.4324 q 0,1.598523 0.99219,2.494247 1.00596,0.895724 2.81119,0.895724 1.79145,0 2.79742,-0.895724 1.01974,-0.895724 1.01974,-2.494247 0,-1.598523 -1.01974,-2.494247 -1.00597,-0.895725 -2.79742,-0.895725 -1.80523,0 -2.81119,0.895725 -0.99219,0.895724 -0.99219,2.494247 z"
         id="text490"
         aria-label="8" />
      <rect
         style="fill:none;stroke:#ff0000;stroke-width:0.499999;stroke-dasharray:none"
         id="rect491"
         width="31"
         height="41"
         x="450.07269"
         y="6.6602468" />
    </g>
    <g
       id="g493"
       transform="translate(-5.6552553,143.40559)">
      <rect
         style="fill:none;stroke:#999999;stroke-width:0.499999;stroke-dasharray:none"
         id="rect492"
         width="30"
         height="40"
         x="450.57269"
         y="7.1602473" />
      <path
         style="font-size:28.2222px;line-height:34.1351px;font-family:Sans;-inkscape-font-specification:'Sans, Normal';text-align:center;letter-spacing:0px;word-spacing:0px;text-anchor:middle;fill:#999999;stroke-width:0.5"
         d="m 465.82328,26.387366 q -1.87413,0 -2.97656,1.281575 -1.08865,1.281574 -1.08865,3.513995 0,2.218639 1.08865,3.513994 1.10243,1.281575 2.97656,1.281575 1.87413,0 2.96278,-1.281575 1.10243,-1.295355 1.10243,-3.513994 0,-2.232421 -1.10243,-3.513995 -1.08865,-1.281575 -2.96278,-1.281575 z m 5.52592,-8.722975 v 2.535589 q -1.0473,-0.496094 -2.12217,-0.757921 -1.06109,-0.261827 -2.1084,-0.261827 -2.75607,0 -4.21679,1.86035 -1.44694,1.86035 -1.65365,5.622392 0.81304,-1.198893 2.0395,-1.83279 1.22645,-0.647677 2.70095,-0.647677 3.10058,0 4.89203,1.887911 1.80523,1.87413 1.80523,5.112518 0,3.169485 -1.87413,5.084957 -1.87413,1.915471 -4.98849,1.915471 -3.56912,0 -5.45703,-2.728513 -1.88791,-2.742294 -1.88791,-7.937494 0,-4.878252 2.3151,-7.77213 2.3151,-2.907658 6.21495,-2.907658 1.04731,0 2.10839,0.206706 1.07487,0.206705 2.23242,0.620116 z"
         id="text492"
         aria-label="6" />
      <rect
         style="fill:none;stroke:#ff0000;stroke-width:0.499999;stroke-dasharray:none"
         id="rect493"
         width="31"
         height="41"
         x="450.07269"
         y="6.6602468" />
    </g>
    <g
       id="g495"
       transform="translate(130.00535,143.40559)">
      <rect
         style="fill:none;stroke:#999999;stroke-width:0.499999;stroke-dasharray:none"
         id="rect494"
         width="30"
         height="40"
         x="450.57269"
         y="7.1602473" />
      <path
         style="font-size:28.2222px;line-height:34.1351px;font-family:Sans;-inkscape-font-specification:'Sans, Normal';text-align:center;letter-spacing:0px;word-spacing:0px;text-anchor:middle;fill:#999999;stroke-width:0.5"
         d="m 466.64321,20.089737 v 7.675666 h 7.67566 v 2.342664 h -7.67566 v 7.675666 h -2.3151 v -7.675666 h -7.67567 v -2.342664 h 7.67567 v -7.675666 z"
         id="text494"
         aria-label="+" />
      <rect
         style="fill:none;stroke:#ff0000;stroke-width:0.499999;stroke-dasharray:none"
         id="rect495"
         width="31"
         height="41"
         x="450.07269"
         y="6.6602468" />
    </g>
    <g
       id="g497"
       transform="translate(163.9205,143.40559)">
      <rect
         style="fill:none;stroke:#999999;stroke-width:0.499999;stroke-dasharray:none"
         id="rect496"
         width="30"
         height="40"
         x="450.57269"
         y="7.1602473" />
      <path
         style="font-size:28.2222px;line-height:34.1351px;font-family:Sans;-inkscape-font-specification:'Sans, Normal';text-align:center;letter-spacing:0px;word-spacing:0px;text-anchor:middle;fill:#999999;stroke-width:0.5"
         d="m 457.05896,27.765403 h 17.66644 v 2.342664 h -17.66644 z"
         id="text496"
         aria-label="−" />
      <rect
         style="fill:none;stroke:#ff0000;stroke-width:0.499999;stroke-dasharray:none"
         id="rect497"
         width="31"
         height="41"
         x="450.07269"
         y="6.6602468" />
    </g>
    <g
       id="g499"
       transform="translate(96.090198,143.40559)">
      <rect
         style="fill:none;stroke:#999999;stroke-width:0.499999;stroke-dasharray:none"
         id="rect498"
         width="30"
         height="40"
         x="450.57269"
         y="7.1602473" />
      <path
         style="font-size:28.2222px;line-height:34.1351px;font-family:Sans;-inkscape-font-specification:'Sans, Normal';text-align:center;letter-spacing:0px;word-spacing:0px;text-anchor:middle;fill:#999999;stroke-width:0.5"
         d="m 459.60833,37.356542 v -2.535588 q 1.04731,0.496093 2.12218,0.75792 1.07486,0.261827 2.10839,0.261827 2.75608,0 4.20302,-1.84657 1.46071,-1.86035 1.66742,-5.636172 -0.79926,1.185112 -2.02571,1.819009 -1.22646,0.633897 -2.71474,0.633897 -3.0868,0 -4.89203,-1.86035 -1.79145,-1.87413 -1.79145,-5.112517 0,-3.169486 1.87413,-5.084957 1.87413,-1.915472 4.9885,-1.915472 3.56911,0 5.44324,2.742294 1.88792,2.728513 1.88792,7.937494 0,4.864471 -2.31511,7.772129 -2.30132,2.893878 -6.20116,2.893878 -1.04731,0 -2.12218,-0.206705 -1.07487,-0.206706 -2.23242,-0.620117 z m 5.53971,-8.722975 q 1.87413,0 2.96278,-1.281575 1.10243,-1.281574 1.10243,-3.513994 0,-2.21864 -1.10243,-3.500215 -1.08865,-1.295355 -2.96278,-1.295355 -1.87413,0 -2.97656,1.295355 -1.08865,1.281575 -1.08865,3.500215 0,2.23242 1.08865,3.513994 1.10243,1.281575 2.97656,1.281575 z"
         id="text498"
         aria-label="9" />
      <rect
         style="fill:none;stroke:#ff0000;stroke-width:0.499999;stroke-dasharray:none"
         id="rect499"
         width="31"
         height="41"
         x="450.07269"
         y="6.6602468" />
    </g>
    <g
       id="g501"
       transform="translate(28.287992,192.08357)">
      <rect
         style="fill:none;stroke:#999999;stroke-width:0.499999;stroke-dasharray:none"
         id="rect500"
         width="30"
         height="40"
         x="450.57269"
         y="7.1602473" />
      <path
         style="font-size:28.2222px;line-height:34.1351px;font-family:Sans;-inkscape-font-specification:'Sans, Normal';text-align:center;letter-spacing:0px;word-spacing:0px;text-anchor:middle;fill:#999999;stroke-width:0.5"
         d="m 460.00796,35.44107 h 4.54752 V 19.745227 l -4.94715,0.992187 v -2.535588 l 4.91959,-0.992187 h 2.78364 V 35.44107 h 4.54752 v 2.342663 h -11.85112 z"
         id="text500"
         aria-label="1" />
      <rect
         style="fill:none;stroke:#ff0000;stroke-width:0.499999;stroke-dasharray:none"
         id="rect501"
         width="31"
         height="41"
         x="450.07269"
         y="6.6602468" />
    </g>
    <g
       id="g503"
       transform="translate(62.105104,192.08357)">
      <rect
         style="fill:none;stroke:#999999;stroke-width:0.499999;stroke-dasharray:none"
         id="rect502"
         width="30"
         height="40"
         x="450.57269"
         y="7.1602473" />
      <path
         style="font-size:28.2222px;line-height:34.1351px;font-family:Sans;-inkscape-font-specification:'Sans, Normal';text-align:center;letter-spacing:0px;word-spacing:0px;text-anchor:middle;fill:#999999;stroke-width:0.5"
         d="m 462.32996,35.44107 h 9.71516 v 2.342663 H 458.98133 V 35.44107 q 1.58474,-1.639864 4.31325,-4.395938 2.7423,-2.769855 3.44509,-3.569116 1.3367,-1.502061 1.86035,-2.535589 0.53744,-1.047308 0.53744,-2.053275 0,-1.639864 -1.15755,-2.673392 -1.14377,-1.033528 -2.99034,-1.033528 -1.30914,0 -2.76986,0.454752 -1.44694,0.454753 -3.10058,1.378038 v -2.811196 q 1.6812,-0.675238 3.14192,-1.019748 1.46072,-0.344509 2.6734,-0.344509 3.19704,0 5.09873,1.598523 1.90169,1.598523 1.90169,4.271915 0,1.267794 -0.48231,2.411565 -0.46853,1.129991 -1.72255,2.673392 -0.3445,0.399631 -2.19107,2.315103 -1.84657,1.901691 -5.20898,5.333003 z"
         id="text502"
         aria-label="2" />
      <rect
         style="fill:none;stroke:#ff0000;stroke-width:0.499999;stroke-dasharray:none"
         id="rect503"
         width="31"
         height="41"
         x="450.07269"
         y="6.6602468" />
    </g>
    <g
       id="g505"
       transform="translate(-5.5291205,192.08357)">
      <rect
         style="fill:none;stroke:#999999;stroke-width:0.499999;stroke-dasharray:none"
         id="rect504"
         width="30"
         height="40"
         x="450.57269"
         y="7.1602473" />
      <path
         style="font-size:28.2222px;line-height:34.1351px;font-family:Sans;-inkscape-font-specification:'Sans, Normal';text-align:center;letter-spacing:0px;word-spacing:0px;text-anchor:middle;fill:#999999;stroke-width:0.5"
         d="m 465.47877,19.042428 q -2.14974,0 -3.23839,2.122178 -1.07487,2.108396 -1.07487,6.352751 0,4.230574 1.07487,6.352751 1.08865,2.108397 3.23839,2.108397 2.16351,0 3.23838,-2.108397 1.08865,-2.122177 1.08865,-6.352751 0,-4.244355 -1.08865,-6.352751 -1.07487,-2.122178 -3.23838,-2.122178 z m 0,-2.204859 q 3.45887,0 5.27788,2.742294 1.83279,2.728513 1.83279,7.937494 0,5.1952 -1.83279,7.937494 -1.81901,2.728513 -5.27788,2.728513 -3.45888,0 -5.29167,-2.728513 -1.81901,-2.742294 -1.81901,-7.937494 0,-5.208981 1.81901,-7.937494 1.83279,-2.742294 5.29167,-2.742294 z"
         id="text504"
         aria-label="0" />
      <rect
         style="fill:none;stroke:#ff0000;stroke-width:0.499999;stroke-dasharray:none"
         id="rect505"
         width="31"
         height="41"
         x="450.07269"
         y="6.6602468" />
    </g>
    <g
       id="g507"
       transform="translate(129.73933,192.08357)">
      <rect
         style="fill:none;stroke:#999999;stroke-width:0.499999;stroke-dasharray:none"
         id="rect506"
         width="30"
         height="40"
         x="450.57269"
         y="7.1602473" />
      <path
         style="font-size:28.2222px;line-height:34.1351px;font-family:Sans;-inkscape-font-specification:'Sans, Normal';text-align:center;letter-spacing:0px;word-spacing:0px;text-anchor:middle;fill:#999999;stroke-width:0.5"
         d="m 467.17375,19.634984 -7.02799,10.982956 h 7.02799 z m -0.73036,-2.425345 h 3.50022 V 30.61794 h 2.93522 v 2.315103 h -2.93522 v 4.85069 h -2.76986 v -4.85069 h -9.28797 V 30.24587 Z"
         id="text506"
         aria-label="4" />
      <rect
         style="fill:none;stroke:#ff0000;stroke-width:0.499999;stroke-dasharray:none"
         id="rect507"
         width="31"
         height="41"
         x="450.07269"
         y="6.6602468" />
    </g>
    <g
       id="g509"
       transform="translate(163.55644,192.08357)">
      <rect
         style="fill:none;stroke:#999999;stroke-width:0.499999;stroke-dasharray:none"
         id="rect508"
         width="30"
         height="40"
         x="450.57269"
         y="7.1602473" />
      <path
         style="font-size:28.2222px;line-height:34.1351px;font-family:Sans;-inkscape-font-specification:'Sans, Normal';text-align:center;letter-spacing:0px;word-spacing:0px;text-anchor:middle;fill:#999999;stroke-width:0.5"
         d="m 459.95973,17.209639 h 10.92784 v 2.342663 h -8.37847 v 5.043616 q 0.60634,-0.206706 1.21267,-0.303168 0.60634,-0.110243 1.21268,-0.110243 3.44509,0 5.45702,1.887911 2.01194,1.887911 2.01194,5.112518 0,3.321069 -2.06706,5.167639 -2.06705,1.832789 -5.8291,1.832789 -1.29535,0 -2.64583,-0.220486 -1.33669,-0.220486 -2.76985,-0.661458 v -2.797415 q 1.24023,0.675238 2.56315,1.005967 1.32291,0.330729 2.79741,0.330729 2.38401,0 3.77582,-1.254014 1.39182,-1.254014 1.39182,-3.403751 0,-2.149738 -1.39182,-3.403752 -1.39181,-1.254014 -3.77582,-1.254014 -1.11621,0 -2.23242,0.248047 -1.10243,0.248046 -2.25998,0.771701 z"
         id="text508"
         aria-label="5" />
      <rect
         style="fill:none;stroke:#ff0000;stroke-width:0.499999;stroke-dasharray:none"
         id="rect509"
         width="31"
         height="41"
         x="450.07269"
         y="6.6602468" />
    </g>
    <g
       id="g511"
       transform="translate(95.922216,192.08357)">
      <rect
         style="fill:none;stroke:#999999;stroke-width:0.499999;stroke-dasharray:none"
         id="rect510"
         width="30"
         height="40"
         x="450.57269"
         y="7.1602473" />
      <path
         style="font-size:28.2222px;line-height:34.1351px;font-family:Sans;-inkscape-font-specification:'Sans, Normal';text-align:center;letter-spacing:0px;word-spacing:0px;text-anchor:middle;fill:#999999;stroke-width:0.5"
         d="m 467.95923,26.690534 q 1.99816,0.427192 3.11437,1.777668 1.12999,1.350477 1.12999,3.33485 0,3.045462 -2.09462,4.712887 -2.09462,1.667425 -5.95312,1.667425 -1.29535,0 -2.67339,-0.261827 -1.36426,-0.248047 -2.82498,-0.75792 v -2.687173 q 1.15755,0.675238 2.53559,1.019748 1.37804,0.344509 2.8801,0.344509 2.61827,0 3.98253,-1.033528 1.37803,-1.033528 1.37803,-3.004121 0,-1.819009 -1.28157,-2.838756 -1.2678,-1.033528 -3.54156,-1.033528 h -2.39778 v -2.287542 h 2.50803 q 2.05327,0 3.14192,-0.813042 1.08865,-0.826822 1.08865,-2.370224 0,-1.584742 -1.12999,-2.425345 -1.11621,-0.854383 -3.21083,-0.854383 -1.14377,0 -2.4529,0.248047 -1.30914,0.248046 -2.8801,0.771701 v -2.480467 q 1.58474,-0.440972 2.96278,-0.661458 1.39182,-0.220486 2.61827,-0.220486 3.16949,0 5.01605,1.446939 1.84657,1.433159 1.84657,3.886065 0,1.708766 -0.9784,2.893878 -0.97841,1.171331 -2.78364,1.626083 z"
         id="text510"
         aria-label="3" />
      <rect
         style="fill:none;stroke:#ff0000;stroke-width:0.499999;stroke-dasharray:none"
         id="rect511"
         width="31"
         height="41"
         x="450.07269"
         y="6.6602468" />
    </g>
    <g
       id="g513"
       transform="translate(28.388899,240.03591)">
      <rect
         style="fill:none;stroke:#999999;stroke-width:0.499999;stroke-dasharray:none"
         id="rect512"
         width="30"
         height="40"
         x="450.57269"
         y="7.1602473" />
      <path
         style="font-size:28.2222px;line-height:34.1351px;font-family:Sans;-inkscape-font-specification:'Sans, Normal';text-align:center;letter-spacing:0px;word-spacing:0px;text-anchor:middle;fill:#999999;stroke-width:0.5"
         d="M 458.82285,17.209639 H 472.052 v 1.185112 l -7.46896,19.388982 h -2.90766 l 7.02799,-18.231431 h -9.88052 z"
         id="text512"
         aria-label="7" />
      <rect
         style="fill:none;stroke:#ff0000;stroke-width:0.499999;stroke-dasharray:none"
         id="rect513"
         width="31"
         height="41"
         x="450.07269"
         y="6.6602468" />
    </g>
    <g
       id="g515"
       transform="translate(62.180785,240.03591)">
      <rect
         style="fill:none;stroke:#999999;stroke-width:0.499999;stroke-dasharray:none"
         id="rect514"
         width="30"
         height="40"
         x="450.57269"
         y="7.1602473" />
      <path
         style="font-size:28.2222px;line-height:34.1351px;font-family:Sans;-inkscape-font-specification:'Sans, Normal';text-align:center;letter-spacing:0px;word-spacing:0px;text-anchor:middle;fill:#999999;stroke-width:0.5"
         d="m 465.88529,28.01345 q -1.98437,0 -3.12814,1.061089 -1.12999,1.061088 -1.12999,2.921438 0,1.860351 1.12999,2.921439 1.14377,1.061089 3.12814,1.061089 1.98437,0 3.12815,-1.061089 1.14377,-1.074869 1.14377,-2.921439 0,-1.86035 -1.14377,-2.921438 -1.12999,-1.061089 -3.12815,-1.061089 z m -2.78363,-1.185112 q -1.79145,-0.440972 -2.79742,-1.667425 -0.99219,-1.226453 -0.99219,-2.99034 0,-2.466687 1.75011,-3.899845 1.76389,-1.433159 4.82313,-1.433159 3.07302,0 4.82313,1.433159 1.75011,1.433158 1.75011,3.899845 0,1.763887 -1.00597,2.99034 -0.99219,1.226453 -2.76985,1.667425 2.01193,0.468533 3.12814,1.83279 1.12999,1.364256 1.12999,3.334849 0,2.990341 -1.83279,4.588864 -1.81901,1.598523 -5.22276,1.598523 -3.40375,0 -5.23654,-1.598523 -1.81901,-1.598523 -1.81901,-4.588864 0,-1.970593 1.12999,-3.334849 1.12999,-1.364257 3.14193,-1.83279 z M 462.08191,22.4324 q 0,1.598523 0.99219,2.494247 1.00596,0.895724 2.81119,0.895724 1.79145,0 2.79742,-0.895724 1.01974,-0.895724 1.01974,-2.494247 0,-1.598523 -1.01974,-2.494247 -1.00597,-0.895725 -2.79742,-0.895725 -1.80523,0 -2.81119,0.895725 -0.99219,0.895724 -0.99219,2.494247 z"
         id="text514"
         aria-label="8" />
      <rect
         style="fill:none;stroke:#ff0000;stroke-width:0.499999;stroke-dasharray:none"
         id="rect515"
         width="31"
         height="41"
         x="450.07269"
         y="6.6602468" />
    </g>
    <g
       id="g517"
       transform="translate(-5.4029857,240.03591)">
      <rect
         style="fill:none;stroke:#999999;stroke-width:0.499999;stroke-dasharray:none"
         id="rect516"
         width="30"
         height="40"
         x="450.57269"
         y="7.1602473" />
      <path
         style="font-size:28.2222px;line-height:34.1351px;font-family:Sans;-inkscape-font-specification:'Sans, Normal';text-align:center;letter-spacing:0px;word-spacing:0px;text-anchor:middle;fill:#999999;stroke-width:0.5"
         d="m 465.82328,26.387366 q -1.87413,0 -2.97656,1.281575 -1.08865,1.281574 -1.08865,3.513995 0,2.218639 1.08865,3.513994 1.10243,1.281575 2.97656,1.281575 1.87413,0 2.96278,-1.281575 1.10243,-1.295355 1.10243,-3.513994 0,-2.232421 -1.10243,-3.513995 -1.08865,-1.281575 -2.96278,-1.281575 z m 5.52592,-8.722975 v 2.535589 q -1.0473,-0.496094 -2.12217,-0.757921 -1.06109,-0.261827 -2.1084,-0.261827 -2.75607,0 -4.21679,1.86035 -1.44694,1.86035 -1.65365,5.622392 0.81304,-1.198893 2.0395,-1.83279 1.22645,-0.647677 2.70095,-0.647677 3.10058,0 4.89203,1.887911 1.80523,1.87413 1.80523,5.112518 0,3.169485 -1.87413,5.084957 -1.87413,1.915471 -4.98849,1.915471 -3.56912,0 -5.45703,-2.728513 -1.88791,-2.742294 -1.88791,-7.937494 0,-4.878252 2.3151,-7.77213 2.3151,-2.907658 6.21495,-2.907658 1.04731,0 2.10839,0.206706 1.07487,0.206705 2.23242,0.620116 z"
         id="text516"
         aria-label="6" />
      <rect
         style="fill:none;stroke:#ff0000;stroke-width:0.499999;stroke-dasharray:none"
         id="rect517"
         width="31"
         height="41"
         x="450.07269"
         y="6.6602468" />
    </g>
    <g
       id="g519"
       transform="translate(129.76455,240.03591)">
      <rect
         style="fill:none;stroke:#999999;stroke-width:0.499999;stroke-dasharray:none"
         id="rect518"
         width="30"
         height="40"
         x="450.57269"
         y="7.1602473" />
      <path
         style="font-size:28.2222px;line-height:34.1351px;font-family:Sans;-inkscape-font-specification:'Sans, Normal';text-align:center;letter-spacing:0px;word-spacing:0px;text-anchor:middle;fill:#999999;stroke-width:0.5"
         d="m 473.45071,22.625325 -6.29763,6.32519 6.29763,6.29763 -1.63986,1.667425 -6.32519,-6.32519 -6.32519,6.32519 -1.62609,-1.667425 6.28385,-6.29763 -6.28385,-6.32519 1.62609,-1.667425 6.32519,6.32519 6.32519,-6.32519 z"
         id="text518"
         aria-label="×" />
      <rect
         style="fill:none;stroke:#ff0000;stroke-width:0.499999;stroke-dasharray:none"
         id="rect519"
         width="31"
         height="41"
         x="450.07269"
         y="6.6602468" />
    </g>
    <g
       id="g521"
       transform="translate(163.55644,240.03591)">
      <rect
         style="fill:none;stroke:#999999;stroke-width:0.499999;stroke-dasharray:none"
         id="rect520"
         width="30"
         height="40"
         x="450.57269"
         y="7.1602473" />
      <path
         style="font-size:28.2222px;line-height:34.1351px;font-family:Sans;-inkscape-font-specification:'Sans, Normal';text-align:center;letter-spacing:0px;word-spacing:0px;text-anchor:middle;fill:#999999;stroke-width:0.5"
         d="m 457.05896,24.967988 h 17.66644 v 2.315102 h -17.66644 z m 0,5.622392 h 17.66644 v 2.342663 h -17.66644 z"
         id="text520"
         aria-label="=" />
      <rect
         style="fill:none;stroke:#ff0000;stroke-width:0.499999;stroke-dasharray:none"
         id="rect521"
         width="31"
         height="41"
         x="450.07269"
         y="6.6602468" />
    </g>
    <g
       id="g523"
       transform="translate(95.97267,240.03591)">
      <rect
         style="fill:none;stroke:#999999;stroke-width:0.499999;stroke-dasharray:none"
         id="rect522"
         width="30"
         height="40"
         x="450.57269"
         y="7.1602473" />
      <path
         style="font-size:28.2222px;line-height:34.1351px;font-family:Sans;-inkscape-font-specification:'Sans, Normal';text-align:center;letter-spacing:0px;word-spacing:0px;text-anchor:middle;fill:#999999;stroke-width:0.5"
         d="m 459.60833,37.356542 v -2.535588 q 1.04731,0.496093 2.12218,0.75792 1.07486,0.261827 2.10839,0.261827 2.75608,0 4.20302,-1.84657 1.46071,-1.86035 1.66742,-5.636172 -0.79926,1.185112 -2.02571,1.819009 -1.22646,0.633897 -2.71474,0.633897 -3.0868,0 -4.89203,-1.86035 -1.79145,-1.87413 -1.79145,-5.112517 0,-3.169486 1.87413,-5.084957 1.87413,-1.915472 4.9885,-1.915472 3.56911,0 5.44324,2.742294 1.88792,2.728513 1.88792,7.937494 0,4.864471 -2.31511,7.772129 -2.30132,2.893878 -6.20116,2.893878 -1.04731,0 -2.12218,-0.206705 -1.07487,-0.206706 -2.23242,-0.620117 z m 5.53971,-8.722975 q 1.87413,0 2.96278,-1.281575 1.10243,-1.281574 1.10243,-3.513994 0,-2.21864 -1.10243,-3.500215 -1.08865,-1.295355 -2.96278,-1.295355 -1.87413,0 -2.97656,1.295355 -1.08865,1.281575 -1.08865,3.500215 0,2.23242 1.08865,3.513994 1.10243,1.281575 2.97656,1.281575 z"
         id="text522"
         aria-label="9" />
      <rect
         style="fill:none;stroke:#ff0000;stroke-width:0.499999;stroke-dasharray:none"
         id="rect523"
         width="31"
         height="41"
         x="450.07269"
         y="6.6602468" />
    </g>
  </g>
</svg>
