<?xml version="1.0" encoding="UTF-8" standalone="no"?>
<!-- Created with Inkscape (http://www.inkscape.org/) -->

<svg
   width="103.22826mm"
   height="103.58696mm"
   viewBox="0 0 103.22826 103.58696"
   version="1.1"
   id="svg1"
   inkscape:version="1.4.2 (1:1.4.2+202505120737+ebf0e940d0)"
   sodipodi:docname="venn_3.svg"
   xmlns:inkscape="http://www.inkscape.org/namespaces/inkscape"
   xmlns:sodipodi="http://sodipodi.sourceforge.net/DTD/sodipodi-0.dtd"
   xmlns="http://www.w3.org/2000/svg"
   xmlns:svg="http://www.w3.org/2000/svg">
  <sodipodi:namedview
     id="namedview1"
     pagecolor="#505050"
     bordercolor="#eeeeee"
     borderopacity="1"
     inkscape:showpageshadow="0"
     inkscape:pageopacity="0"
     inkscape:pagecheckerboard="0"
     inkscape:deskcolor="#505050"
     inkscape:document-units="mm"
     inkscape:zoom="1.0431611"
     inkscape:cx="256.43212"
     inkscape:cy="256.91143"
     inkscape:window-width="1920"
     inkscape:window-height="1011"
     inkscape:window-x="0"
     inkscape:window-y="0"
     inkscape:window-maximized="1"
     inkscape:current-layer="layer1" />
  <defs
     id="defs1" />
  <g
     inkscape:label="Layer 1"
     inkscape:groupmode="layer"
     id="layer1"
     transform="translate(-18.152176,-21.739128)">
    <circle
       style="fill:none;stroke:#000000;stroke-width:1"
       id="path1"
       cx="51.114132"
       cy="54.701084"
       r="32.461956" />
    <circle
       style="fill:none;stroke:#000000;stroke-width:1"
       id="circle1"
       cx="88.41848"
       cy="74.78804"
       r="32.461956" />
    <circle
       style="fill:none;stroke:#000000;stroke-width:1"
       id="circle2"
       cx="51.831524"
       cy="92.364128"
       r="32.461956" />
    <path
       id="path3380"
       d="m 50.843963,32.358751 v 0.23547 c 0.392449,-0.0196 0.775087,-0.0294 1.11848,-0.0294 0.333582,0 0.71622,0.01 1.108669,0.0294 v -0.23547 l -0.206036,-0.0196 c -0.343393,-0.0294 -0.451316,-0.0785 -0.569051,-0.28452 l -1.422628,-2.56073 1.844511,-2.0996 c 0.24528,-0.27472 0.32377,-0.32377 0.539617,-0.35321 l 0.23547,-0.01 v -0.23547 l -0.95169,0.0196 c -0.09811,0 -0.215847,0 -0.9615,-0.0196 v 0.23547 l 0.274715,0.01 c 0.274714,0.0196 0.382637,0.0589 0.382637,0.15698 0,0.0981 -0.04906,0.16679 -0.196224,0.35321 l -1.344138,1.63847 -0.863388,-1.6581 c -0.07849,-0.15698 -0.117735,-0.25509 -0.117735,-0.32377 0,-0.0981 0.107924,-0.14717 0.353204,-0.16679 l 0.313959,-0.01 v -0.23547 l -0.382637,0.01 c -0.343393,0 -0.598485,0.01 -0.726031,0.01 -0.147169,0 -0.392449,-0.01 -0.735842,-0.01 l -0.372827,-0.01 v 0.23547 l 0.215847,0.01 c 0.412072,0.0491 0.510184,0.0981 0.676975,0.41207 l 1.216592,2.24677 -1.981868,2.3547 c -0.127546,0.14717 -0.32377,0.25509 -0.519995,0.27471 l -0.235469,0.0294 v 0.23547 c 0.412071,-0.0196 0.755464,-0.0294 1.03999,-0.0294 0.304148,0 0.637729,0.01 0.990934,0.0294 v -0.23547 l -0.264903,-0.0294 c -0.31396,-0.0294 -0.461128,-0.0785 -0.461128,-0.18641 0,-0.0589 0.03925,-0.13736 0.0883,-0.20604 l 1.52074,-1.923 0.990934,1.88376 c 0.06868,0.14717 0.117735,0.25509 0.117735,0.33358 0,0.0687 -0.05887,0.0883 -0.264903,0.0883 l -0.137358,0.01 z m 0,0"
       style="fill:#000000;fill-opacity:1;fill-rule:nonzero;stroke:none;stroke-width:0.837225" />
    <path
       style="fill:#000000;fill-opacity:1;fill-rule:nonzero;stroke:none;stroke-width:0.837225"
       d="m 36.526838,47.389422 c 0.147169,0 0.304148,0 0.304148,-0.1766 0,-0.0196 0,-0.0392 -0.02944,-0.13736 -0.147168,-0.51018 -0.215846,-0.99093 -0.215846,-1.42262 h 0.441505 c 0.02944,0.72603 0.80452,0.79471 1.03999,0.79471 0.833954,0 1.491306,-0.76528 1.491306,-1.69735 0,-0.84376 -0.461127,-1.68753 -1.275459,-1.68753 -0.313959,0 -0.588673,0.11774 -0.794709,0.37283 l -0.196225,-0.40226 c 0.441506,-0.35321 0.657352,-0.86339 0.657352,-1.3932 0,-0.91244 -0.657352,-1.69734 -1.530551,-1.69734 -0.88301,0 -1.540363,0.79471 -1.540363,1.69734 0,0.52981 0.225659,1.04981 0.657353,1.3932 l -0.186414,0.40226 c -0.215847,-0.25509 -0.490561,-0.37283 -0.80452,-0.37283 -0.814332,0 -1.265649,0.84377 -1.265649,1.68753 0,0.93207 0.63773,1.69735 1.481495,1.69735 0.225659,0 1.010557,-0.0687 1.049802,-0.79471 h 0.431694 c -0.0098,0.56905 -0.0883,1.00074 -0.215847,1.46187 -0.02944,0.0687 -0.02944,0.0883 -0.02944,0.0981 0,0.1766 0.156979,0.1766 0.304148,0.1766 z"
       id="path2" />
    <path
       id="path3387"
       d="m 56.029704,47.633948 c 0,-2.26639 -1.756209,-4.04223 -3.855812,-4.04223 -2.129036,0 -3.865623,1.79546 -3.865623,4.04223 0,2.2762 1.756209,4.05204 3.855812,4.05204 2.129036,0 3.865623,-1.79546 3.865623,-4.05204 z m -3.855812,3.70864 c -1.942623,0 -3.522231,-1.64828 -3.522231,-3.70864 0,-2.06036 1.58942,-3.69883 3.51242,-3.69883 1.952434,0 3.52223,1.64828 3.52223,3.69883 0,2.07017 -1.589419,3.70864 -3.512419,3.70864 z m 0,0"
       style="fill:#000000;fill-opacity:1;fill-rule:nonzero;stroke:none;stroke-width:0.837225" />
    <path
       style="fill:#000000;fill-opacity:1;fill-rule:nonzero;stroke:none;stroke-width:0.837225"
       d="M 69.549116,43.333704"
       id="path5" />
    <path
       style="fill:#000000;fill-opacity:1;fill-rule:nonzero;stroke:none;stroke-width:0.837225"
       d="m 68.405889,40.803939 -1.746398,-1.73659 c -0.09811,-0.0981 -0.117735,-0.11773 -0.186413,-0.11773 -0.0883,0 -0.176603,0.0785 -0.176603,0.1766 0,0.0589 0.01962,0.0785 0.117735,0.16679 l 1.736587,1.7464 -1.736587,1.75621 c -0.09811,0.0883 -0.117735,0.10792 -0.117735,0.16679 0,0.0981 0.0883,0.1766 0.176603,0.1766 0.06868,0 0.0883,-0.0196 0.186413,-0.11773 l 1.736587,-1.73659 1.795454,1.80527 c 0.01962,0.01 0.07849,0.049 0.127547,0.049 0.107923,0 0.176601,-0.0785 0.176601,-0.1766 0,-0.01 0,-0.0491 -0.01962,-0.0883 -0.0098,-0.0196 -1.393195,-1.38338 -1.8347,-1.8347 l 1.59923,-1.58942 c 0.03924,-0.049 0.166791,-0.15698 0.215847,-0.21585 0.0098,-0.0196 0.03924,-0.049 0.03924,-0.10792 0,-0.0981 -0.06868,-0.1766 -0.176602,-0.1766 -0.06868,0 -0.09811,0.0392 -0.196225,0.12754 z"
       id="path3389" />
    <path
       id="path3391"
       d="m 23.78377,92.353096 0.02943,0.19622 c 0.186414,-0.0687 0.284526,-0.0981 0.372827,-0.0981 0.392449,0 0.696597,0.38264 1.030179,1.32452 0.206036,0.54942 0.529806,1.69734 0.519995,1.8347 0,0 0,0.0196 -0.0098,0.049 l -0.176602,1.0498 c -0.137358,0.75547 -0.147169,0.7849 -0.480751,0.80452 l -0.40226,0.0294 -0.02943,0.23547 0.441505,-0.01 c 0.392449,-0.01 0.578862,-0.0196 0.716219,-0.0196 l 0.814332,0.0294 h 0.215847 l 0.01962,-0.23547 -0.402261,-0.0294 c -0.225658,-0.0196 -0.304148,-0.0687 -0.304148,-0.23547 0,-0.0589 0.0098,-0.13735 0.01962,-0.1766 l 0.215848,-1.403 c 0.06868,-0.46113 0.618107,-1.44225 1.236214,-2.21734 0.48075,-0.61811 0.833955,-0.8732 1.324516,-0.95169 l 0.04906,-0.58867 c -0.608296,0.15698 -1.049801,0.50037 -1.677719,1.33432 -0.510184,0.70641 -0.833955,1.27546 -1.069424,1.88376 -0.627919,-2.55092 -1.020368,-3.27695 -1.795455,-3.28676 l -0.02943,0.0196 c -0.02943,0.0294 -0.04906,0.0491 -0.07849,0.0589 -0.0883,0.0785 -0.264903,0.20603 -0.421883,0.31396 z m 0,0"
       style="fill:#000000;fill-opacity:1;fill-rule:nonzero;stroke:none;stroke-width:0.837225" />
    <path
       id="path3396"
       d="m 43.398129,100.86044 c -0.1766,-0.37282 -0.66716,-0.961501 -1.45206,-0.961501 -1.02037,0 -1.45206,0.883021 -1.45206,1.972061 0,0.80452 0.32377,1.62866 1.59923,2.83545 0.18641,0.1766 0.47094,0.45131 0.54943,0.53961 0.23547,0.28453 0.40226,0.56905 0.55924,0.97131 0.0491,0.10793 0.0785,0.18642 0.19622,0.18642 0.11774,0 0.15698,-0.0981 0.16679,-0.14717 0.29434,-0.73584 0.56905,-1.01056 0.83396,-1.26565 0.95169,-0.90263 1.90338,-1.81508 1.90338,-3.11997 0,-1.12829 -0.45132,-1.972061 -1.45207,-1.972061 -0.79471,0 -1.27546,0.578871 -1.45206,0.961501 z m 0,4.91543 c -0.11773,-0.23547 -0.37282,-0.68679 -0.75546,-1.03018 -1.50112,-1.34414 -1.80527,-2.13885 -1.80527,-2.87469 0,-0.55924 0.12755,-1.62866 1.10867,-1.62866 0.24528,0 1.0498,0.10792 1.27546,1.23621 0.0294,0.16679 0.15698,0.1766 0.1766,0.1766 0.13736,0 0.15698,-0.12754 0.1766,-0.20603 0.19623,-0.97131 0.8732,-1.20678 1.27546,-1.20678 0.32377,0 0.66717,0.11773 0.86339,0.50037 0.23547,0.45132 0.23547,1.01056 0.23547,1.12829 0,0.52 -0.12754,1.31471 -1.47168,2.57054 -0.54943,0.52 -0.80452,0.75547 -1.07924,1.33433 z m 0,0"
       style="fill:#000000;fill-opacity:1;fill-rule:nonzero;stroke:none;stroke-width:0.837225" />
    <path
       id="path3398"
       d="m 78.558936,93.01918 c 0.0981,-0.0883 0.10792,-0.0981 0.10792,-0.12754 0,-0.0981 -0.0785,-0.0981 -0.24528,-0.0981 h -2.51167 l -0.7849,-2.43318 c -0.0491,-0.11774 -0.0589,-0.15698 -0.12755,-0.15698 -0.0687,0 -0.0981,0.0589 -0.12754,0.1766 l -0.7849,2.41356 h -2.51168 c -0.16679,0 -0.24528,0 -0.24528,0.0981 0,0.049 0.0294,0.0687 0.10793,0.12754 l 2.08979,1.51093 -0.79471,2.443 c 0,0.01 -0.0392,0.11773 -0.0392,0.12754 0,0 0,0.0883 0.0981,0.0883 0.0196,0 0.0392,0 0.12755,-0.0785 l 2.07998,-1.50111 2.07998,1.50111 c 0.0294,0.0392 0.0883,0.0785 0.12754,0.0785 0.0981,0 0.0981,-0.0883 0.0981,-0.0883 0,-0.0392 -0.0196,-0.0981 -0.0294,-0.12754 l -0.79471,-2.443 z m 0,0"
       style="fill:#000000;fill-opacity:1;fill-rule:nonzero;stroke:none;stroke-width:0.837225" />
    <path
       id="path3400"
       d="m 96.203904,60.627496 c 0,-0.2649 -0.0294,-0.30414 -0.30415,-0.30414 h -5.17051 c -0.27472,0 -0.30415,0.0294 -0.30415,0.30414 v 5.35693 c 0,0.27472 0.0196,0.31396 0.31396,0.31396 h 5.15089 c 0.28453,0 0.31396,-0.0294 0.31396,-0.30415 z m -5.43542,0.0491 h 5.08222 v 5.27844 h -5.08222 z m 0,0"
       style="fill:#000000;fill-opacity:1;fill-rule:nonzero;stroke:none;stroke-width:0.837225" />
    <path
       id="path3403"
       d="m 108.57299,76.219635 c 0.80452,-0.0196 1.28527,-0.0294 2.0113,-0.0294 0.64754,0 1.62867,0.01 2.12904,0.0196 l 0.55924,0.01 c 0.01,-0.3434 0.0785,-0.82415 0.18641,-1.3932 h -0.21585 l -0.0589,0.1766 c -0.0589,0.16679 -0.13736,0.38264 -0.19623,0.56906 l -0.0687,0.18641 c -0.37282,0.0687 -0.69659,0.10792 -1.05961,0.10792 h -2.34488 l 4.1992,-5.27844 v -0.16679 l -1.34413,0.0196 h -0.21585 l -1.76602,-0.01 -0.98113,-0.01 c 0,0.39245 -0.0294,0.71622 -0.0883,1.32452 h 0.21585 c 0.0196,-0.18642 0.0687,-0.39245 0.1766,-0.71622 l 0.0491,-0.16679 c 0.46113,-0.0883 0.7849,-0.10793 1.50112,-0.10793 h 1.50111 l -4.18939,5.27844 z m 0,0"
       style="fill:#000000;fill-opacity:1;fill-rule:nonzero;stroke:none;stroke-width:0.837225" />
    <path
       style="fill:#000000;fill-opacity:1;fill-rule:nonzero;stroke:none;stroke-width:0.837225"
       d="M 77.618748,89.725582"
       id="path10" />
    <path
       style="fill:#000000;fill-opacity:1;fill-rule:nonzero;stroke:none;stroke-width:0.837225"
       d="m 63.340242,73.883102 c -0.0196,0.0196 -0.0392,0.0687 -0.0392,0.10793 0,0.0785 0.049,0.12754 0.14717,0.21584 1.24602,1.14792 2.0996,2.54111 2.59016,3.53204 0.0196,0.0392 0.0589,0.11774 0.16679,0.11774 0.0981,0 0.12755,-0.0491 0.19622,-0.18641 0.51019,-1.03999 1.3932,-2.41357 2.58036,-3.48299 0.0883,-0.0785 0.12754,-0.11773 0.12754,-0.19622 0,-0.0785 -0.0392,-0.0981 -0.14717,-0.21585 -0.80452,-0.71622 -1.82488,-1.94262 -2.59997,-3.53204 -0.01,-0.0392 -0.0589,-0.11774 -0.15698,-0.11774 -0.10792,0 -0.13736,0.0491 -0.20604,0.18642 -0.45131,0.91244 -1.25583,2.25658 -2.4528,3.36525 z m 2.86488,3.41431 c -0.38264,-0.71622 -0.95169,-1.69734 -1.89357,-2.7079 -0.1766,-0.20604 -0.38264,-0.42188 -0.57886,-0.59848 0.19622,-0.17661 0.42188,-0.40226 0.60829,-0.62792 0.99094,-1.07924 1.58942,-2.1781 1.86414,-2.67847 0.38263,0.71622 0.94187,1.69734 1.88375,2.7079 0.18641,0.20604 0.39245,0.42188 0.57886,0.59849 -0.19622,0.1766 -0.41207,0.41207 -0.60829,0.62791 -0.99094,1.07924 -1.58942,2.1781 -1.85432,2.67847 z"
       id="path9" />
    <path
       style="fill:#000000;fill-opacity:1;fill-rule:nonzero;stroke:none;stroke-width:0.837225"
       d="M 108.18379,90.76366"
       id="path8" />
    <path
       style="fill:none;fill-opacity:1;fill-rule:nonzero;stroke:#000000;stroke-width:0.837225"
       d="m 102.43932,86.359567 c -0.0589,-0.0981 -0.0883,-0.15698 -0.19623,-0.15698 -0.0883,0 -0.11773,0.0294 -0.18641,0.1668 l -3.090543,5.71013 c -0.0687,0.11773 -0.0687,0.13736 -0.0687,0.16679 0,0.1766 0.18642,0.1766 0.31396,0.1766 h 6.073153 c 0.15698,0 0.30415,0 0.30415,-0.1766 0,-0.0392 -0.01,-0.0687 -0.049,-0.13736 z"
       id="path3410" />
  </g>
</svg>
